# xmcd CD database file
#
# Track frame offsets:
#	150
#	12868
#	38281
#	62864
#	77076
#	88343
#	103618
#	121316
#	135093
#	147432
#	173694
#	190834
#	201178
#
# Disc length: 2735 seconds
#
# Revision: 0
# Processed by: cddbd v1.5PL3 Copyright (c) Steve Scherf et al.
# Submitted via: CDex 1.51
#
DISCID=a50aad0d
DTITLE=Count Basie - Autumn in Paris
DYEAR=1957
DGENRE=Jazz
TTITLE0=Whirlybird
TTITLE1=Little Pony
TTITLE2=Corner Pocket
TTITLE3=Lovely Baby
TTITLE4=Blee Blop Blues
TTITLE5=Nails
TTITLE6=The Kid from Red Bank
TTITLE7=Well, Alright, Ok, You Win
TTITLE8=Roll 'Em
TTITLE9=Ol' Man River
TTITLE10=Duet
TTITLE11=Gee, Baby Ain't I Good to You
TTITLE12=One O'clock Jump
EXTD=YEAR: 1957
EXTT0=
EXTT1=
EXTT2=
EXTT3=
EXTT4=
EXTT5=
EXTT6=
EXTT7=
EXTT8=
EXTT9=
EXTT10=
EXTT11=
EXTT12=
PLAYORDER=
